<svg width="271" height="111" viewBox="0 0 271 111" fill="none" xmlns="http://www.w3.org/2000/svg">
<path d="M24.5371 52.7941V40.7378H33.4207V45.8141H52.0339C55.5874 45.8141 56.3347 42.4299 56.2642 40.7378H65.1478C65.5708 48.3523 60.0714 52.1595 55.6297 52.5826L24.5371 52.7941Z" fill="#13670B"/>
<path fill-rule="evenodd" clip-rule="evenodd" d="M11 35.0266V1.60742H76.3578V65.2731H11V40.7375H16.9224V58.7162H70.2239V7.52981H16.9224V28.6812H24.5369V12.6061H51.1876C64.513 12.3946 67.8972 26.7776 59.0137 31.4309C60.4943 31.7834 63.4555 33.7152 64.3015 36.9302H54.9949C54.7834 36.3662 53.895 35.2381 52.0337 35.2381H11V35.0266ZM50.3411 19.3746H33.42V28.6812H50.3411C52.9111 28.6812 54.9944 26.5978 54.9944 24.0279C54.9944 21.458 52.9111 19.3746 50.3411 19.3746Z" fill="#13670B"/>
<rect x="41.8809" y="54.063" width="5.92239" height="2.96119" fill="#13670B"/>
<path d="M113.164 52.7727C113.164 56.5587 111.942 59.7493 109.5 62.3445C107.088 64.9092 104.111 66.1916 100.569 66.1916C97.1801 66.1916 94.3406 64.8023 92.0507 62.0239V65.3672H86.4633V31.5223H92.5545V42.6055C94.417 40.3156 97.058 39.1706 100.478 39.1706C104.05 39.1706 107.057 40.4835 109.5 43.1093C111.942 45.7045 113.164 48.9256 113.164 52.7727ZM107.118 52.7727C107.118 50.5438 106.401 48.7272 104.966 47.3227C103.531 45.8877 101.76 45.1549 99.6532 45.1244C97.577 45.0939 95.8214 45.7961 94.3864 47.2311C92.9514 48.6661 92.2339 50.4523 92.2339 52.5895C92.2339 54.7573 92.9514 56.5892 94.3864 58.0853C95.8214 59.5508 97.5923 60.2836 99.699 60.2836C101.836 60.2836 103.607 59.5814 105.012 58.1769C106.416 56.7419 107.118 54.9405 107.118 52.7727ZM141.154 52.3147C141.154 53.4444 141.047 54.4672 140.833 55.3832H121.186C121.613 56.8793 122.453 58.07 123.704 58.9554C124.956 59.8409 126.437 60.2836 128.147 60.2836C130.162 60.2836 131.933 59.5356 133.459 58.0395H140.238C139.413 60.3905 137.856 62.3445 135.566 63.9016C133.276 65.4283 130.788 66.1916 128.101 66.1916C124.376 66.1916 121.201 64.8787 118.575 62.2529C115.98 59.6271 114.682 56.4518 114.682 52.7269C114.682 48.9409 115.995 45.735 118.621 43.1093C121.277 40.4835 124.452 39.1706 128.147 39.1706C131.627 39.1706 134.665 40.4835 137.261 43.1093C139.856 45.7045 141.154 48.773 141.154 52.3147ZM135.017 49.979C134.65 48.6051 133.795 47.4601 132.452 46.5441C131.108 45.5976 129.628 45.1244 128.009 45.1244C126.422 45.1244 124.987 45.5671 123.704 46.4525C122.453 47.3074 121.552 48.4829 121.002 49.979H135.017ZM169.853 65.3672H164.265V62.1155C162.647 63.6116 161.166 64.6649 159.823 65.2756C158.51 65.8862 157.029 66.1916 155.381 66.1916C151.839 66.1916 148.893 64.9245 146.542 62.3903C144.221 59.8256 143.061 56.6045 143.061 52.7269C143.061 48.8493 144.252 45.6282 146.633 43.0635C149.015 40.4682 152.007 39.1706 155.61 39.1706C158.846 39.1706 161.731 40.5904 164.265 43.4299V39.995H169.853V65.3672ZM164.082 52.7727C164.082 50.4828 163.365 48.6356 161.93 47.2311C160.525 45.7961 158.678 45.0786 156.388 45.0786C154.404 45.0786 152.694 45.8266 151.259 47.3227C149.854 48.8188 149.152 50.6202 149.152 52.7269C149.152 54.8336 149.87 56.6197 151.305 58.0853C152.77 59.5508 154.556 60.2836 156.663 60.2836C158.77 60.2836 160.525 59.5661 161.93 58.1311C163.365 56.6655 164.082 54.8794 164.082 52.7727ZM198.575 57.1235C197.751 59.7798 196.163 61.9629 193.812 63.6727C191.492 65.3519 188.882 66.1916 185.981 66.1916C182.195 66.1916 178.974 64.8939 176.318 62.2987C173.692 59.6729 172.379 56.4823 172.379 52.7269C172.379 49.002 173.692 45.8114 176.318 43.1551C178.974 40.4988 182.149 39.1706 185.844 39.1706C188.805 39.1706 191.446 40.0255 193.767 41.7353C196.118 43.4451 197.721 45.674 198.575 48.4219H191.614C190.362 46.2236 188.424 45.1244 185.798 45.1244C183.661 45.1244 181.905 45.8419 180.531 47.2769C179.188 48.7119 178.516 50.5438 178.516 52.7727C178.516 54.9099 179.233 56.6961 180.668 58.1311C182.103 59.5356 183.874 60.2378 185.981 60.2378C188.454 60.2378 190.332 59.1997 191.614 57.1235H198.575ZM227.733 52.7269C227.733 56.4518 226.42 59.6271 223.794 62.2529C221.199 64.8787 218.039 66.1916 214.314 66.1916C210.589 66.1916 207.398 64.8787 204.742 62.2529C202.086 59.6271 200.758 56.4518 200.758 52.7269C200.758 49.002 202.086 45.8114 204.742 43.1551C207.398 40.4988 210.589 39.1706 214.314 39.1706C218.039 39.1706 221.199 40.4988 223.794 43.1551C226.42 45.7808 227.733 48.9714 227.733 52.7269ZM221.642 52.6811C221.642 50.5744 220.924 48.7882 219.489 47.3227C218.085 45.8572 216.344 45.1244 214.268 45.1244C212.192 45.1244 210.436 45.8572 209.001 47.3227C207.566 48.7882 206.849 50.5744 206.849 52.6811C206.849 54.7878 207.566 56.5739 209.001 58.0395C210.436 59.505 212.192 60.2378 214.268 60.2378C216.344 60.2378 218.085 59.505 219.489 58.0395C220.924 56.5739 221.642 54.7878 221.642 52.6811ZM252.768 65.3672H246.677V51.4445C246.677 49.7653 246.295 48.3455 245.532 47.1853C244.647 45.8114 243.364 45.1244 241.685 45.1244C240.189 45.1244 238.953 45.5976 237.975 46.5441C236.876 47.6433 236.327 49.1394 236.327 51.0324V65.3672H230.236V39.995H235.823V42.3307C237.746 40.224 240.082 39.1706 242.83 39.1706C245.853 39.1706 248.295 40.2393 250.158 42.3765C251.898 44.4222 252.768 47.0174 252.768 50.1622V65.3672Z" fill="#040817"/>
<rect x="86.4609" y="1" width="6.09688" height="30.5321" fill="#040817"/>
<path d="M115.474 24.4587C115.474 23.2278 115.967 11.9033 115.967 11.9033C113.603 15.0545 111.043 16.1705 110.058 16.3346V25.4434C110.058 26.9205 108.957 27.9895 107.596 28.3976C105.135 29.1362 102.262 27.7411 100.211 26.9205C101.524 28.4797 105.178 31.9628 109.812 30.8595C114.982 29.6286 115.474 25.6896 115.474 24.4587Z" fill="#13670B"/>
<ellipse cx="103.411" cy="14.1192" rx="2.95421" ry="2.70802" fill="#13670B"/>
<ellipse cx="213.362" cy="29.3823" rx="2.95421" ry="2.70802" fill="#13670B"/>
<ellipse cx="250.425" cy="29.3823" rx="2.95421" ry="2.70802" fill="#13670B"/>
<ellipse cx="221.732" cy="29.3823" rx="2.95421" ry="2.70802" fill="#13670B"/>
<path fill-rule="evenodd" clip-rule="evenodd" d="M130.738 22.9817C130.738 23.9665 130.382 26.245 128.769 27.1669C127.046 28.1516 125.076 28.644 119.906 26.1821C121.219 28.5619 125.322 32.0905 130.492 30.3673C132.216 29.8749 135.662 27.7085 135.662 22.9817V22.7356H253.338V5.01032C251.565 7.57063 249.153 9.03132 248.168 9.44163V18.3042H224.534V5.01032C222.171 7.96453 220.103 9.19545 219.365 9.44163V18.3042H197.947C198.144 12.0019 193.597 9.76988 191.3 9.44163H166.189C166.517 9.11339 167.174 8.01376 167.174 6.24124C167.174 4.46872 163.973 1.56375 161.758 0.825195C162.578 2.13818 164.072 5.15803 163.481 6.73361C162.89 8.30918 161.101 9.19545 160.28 9.44163H155.603V13.8729H189.33C192.678 14.4638 192.859 17.0733 192.531 18.3042H135.17V7.47216C125.913 8.063 120.973 13.955 119.66 16.8271V22.9817H130.738ZM130.491 18.3043V13.3806C129.096 13.6268 126.06 14.6608 125.075 16.8272V18.3043H130.491Z" fill="#13670B"/>
<path d="M12.6549 103.011C11.7175 103.011 10.8843 102.881 10.1552 102.62C9.44345 102.343 8.87059 101.883 8.43661 101.24C8.01999 100.581 7.78564 99.6694 7.73356 98.5063L7.31693 89.4448H9.42609L9.84271 98.0376C9.89479 98.8535 10.0423 99.4698 10.2854 99.8864C10.5284 100.286 10.8669 100.555 11.3009 100.694C11.7522 100.815 12.2904 100.876 12.9153 100.876C13.2798 100.876 13.5402 100.98 13.6965 101.188C13.8701 101.379 13.9569 101.614 13.9569 101.891C13.9569 102.169 13.8353 102.43 13.5923 102.673C13.3493 102.898 13.0368 103.011 12.6549 103.011ZM8.72304 100.147C7.73356 100.459 6.77012 100.615 5.83272 100.615C4.89532 100.615 4.04471 100.477 3.2809 100.199C2.51709 99.9211 1.90952 99.5218 1.45818 99.0011C1.00684 98.4629 0.781167 97.8206 0.781167 97.0742C0.781167 96.3451 0.96344 95.6594 1.32798 95.0171C1.70989 94.3748 2.22199 93.802 2.86428 93.2985C3.52393 92.7951 4.27906 92.3785 5.12967 92.0487C5.99763 91.7015 6.91767 91.4671 7.88979 91.3456L8.25434 93.5329C7.38637 93.5676 6.61388 93.6891 5.93687 93.8974C5.27722 94.0884 4.71304 94.3401 4.24434 94.6526C3.793 94.965 3.44582 95.3035 3.20279 95.6681C2.95976 96.0326 2.83824 96.3885 2.83824 96.7357C2.83824 97.1176 2.97712 97.43 3.25486 97.6731C3.53261 97.9161 3.88848 98.1071 4.32246 98.2459C4.75644 98.3674 5.23382 98.4456 5.7546 98.4803C6.27538 98.4976 6.7788 98.4803 7.26486 98.4282C7.75092 98.3588 8.16754 98.2633 8.51472 98.1418L8.72304 100.147ZM8.17622 86.4503C7.81167 86.4503 7.49921 86.3288 7.23882 86.0858C6.99579 85.8254 6.87427 85.5216 6.87427 85.1744C6.87427 84.8272 6.99579 84.5234 7.23882 84.263C7.49921 84.0026 7.81167 83.8725 8.17622 83.8725C8.5234 83.8725 8.81851 84.0026 9.06154 84.263C9.32193 84.5234 9.45213 84.8272 9.45213 85.1744C9.45213 85.5216 9.32193 85.8254 9.06154 86.0858C8.81851 86.3288 8.5234 86.4503 8.17622 86.4503ZM4.60889 86.4503C4.24434 86.4503 3.93188 86.3288 3.67149 86.0858C3.42846 85.8254 3.30694 85.5216 3.30694 85.1744C3.30694 84.8272 3.42846 84.5234 3.67149 84.263C3.93188 84.0026 4.24434 83.8725 4.60889 83.8725C4.95607 83.8725 5.25118 84.0026 5.49421 84.263C5.7546 84.5234 5.88479 84.8272 5.88479 85.1744C5.88479 85.5216 5.7546 85.8254 5.49421 86.0858C5.25118 86.3288 4.95607 86.4503 4.60889 86.4503ZM12.1427 103.011L12.4031 100.876C13.4273 100.876 14.2258 100.841 14.7986 100.772C15.3715 100.685 15.7794 100.485 16.0225 100.173C16.2655 99.843 16.387 99.3309 16.387 98.6365C16.387 98.2025 16.3176 97.6904 16.1787 97.1002C16.0398 96.4926 15.8576 95.8504 15.6319 95.1733C15.4062 94.4963 15.1632 93.828 14.9028 93.1683L17.012 92.3872C17.2376 92.9427 17.4459 93.5763 17.6369 94.288C17.8452 94.9997 18.0188 95.7028 18.1577 96.3972C18.2965 97.0915 18.366 97.6991 18.366 98.2199C18.366 99.0879 18.2445 99.8256 18.0014 100.433C17.7758 101.041 17.4112 101.536 16.9078 101.917C16.4044 102.299 15.7534 102.577 14.9549 102.751C14.1737 102.924 13.2363 103.011 12.1427 103.011ZM16.9599 107.932C16.5953 107.932 16.2829 107.802 16.0225 107.542C15.7794 107.299 15.6579 107.004 15.6579 106.657C15.6579 106.309 15.7794 106.006 16.0225 105.745C16.2829 105.485 16.5953 105.355 16.9599 105.355C17.3071 105.355 17.6022 105.485 17.8452 105.745C18.1056 106.006 18.2358 106.309 18.2358 106.657C18.2358 107.004 18.1056 107.299 17.8452 107.542C17.6022 107.802 17.3071 107.932 16.9599 107.932ZM13.3925 107.932C13.028 107.932 12.7155 107.802 12.4551 107.542C12.2121 107.299 12.0906 107.004 12.0906 106.657C12.0906 106.309 12.2121 106.006 12.4551 105.745C12.7155 105.485 13.028 105.355 13.3925 105.355C13.7397 105.355 14.0348 105.485 14.2779 105.745C14.5383 106.006 14.6685 106.309 14.6685 106.657C14.6685 107.004 14.5383 107.299 14.2779 107.542C14.0348 107.802 13.7397 107.932 13.3925 107.932ZM19.5072 108.87L18.7521 106.891C20.5054 106.335 21.8507 105.667 22.7881 104.886C23.7429 104.122 24.3938 103.324 24.741 102.49C25.1056 101.657 25.2879 100.859 25.2879 100.095C25.2879 99.6086 25.2358 99.1399 25.1316 98.6886C25.0275 98.2373 24.8452 97.7252 24.5848 97.1523C24.3244 96.5794 23.9599 95.8677 23.4912 95.0171L25.392 94.0537C26.0517 95.182 26.5204 96.2496 26.7981 97.2565C27.0932 98.2633 27.2408 99.1486 27.2408 99.9124C27.2408 101.006 27.0585 101.996 26.694 102.881C26.3468 103.766 25.8781 104.547 25.2879 105.224C24.715 105.919 24.0814 106.509 23.387 106.995C22.71 107.481 22.0243 107.88 21.3299 108.193C20.6529 108.505 20.0454 108.731 19.5072 108.87ZM30.839 102.881L30.3182 84.2891H32.4274L32.9482 102.881H30.839ZM35.0386 101.709L36.0802 99.9124C36.4274 100.138 36.9134 100.355 37.5383 100.563C38.1633 100.772 38.8924 100.876 39.7256 100.876C40.5936 100.876 41.2793 100.789 41.7827 100.615C42.3035 100.442 42.6767 100.19 42.9024 99.8603C43.1454 99.5132 43.2669 99.1139 43.2669 98.6626C43.2669 98.3154 43.1888 97.8901 43.0326 97.3866C42.8937 96.8659 42.5812 96.1715 42.0952 95.3035C41.6091 94.4182 40.8626 93.2638 39.8558 91.8404L41.6525 90.6686C42.5725 91.9358 43.3016 93.0815 43.8398 94.1057C44.3953 95.1299 44.7858 96.0326 45.0115 96.8138C45.2545 97.5776 45.3761 98.2373 45.3761 98.7928C45.3761 99.4871 45.2025 100.164 44.8553 100.824C44.5081 101.466 43.9266 101.996 43.1107 102.412C42.2948 102.829 41.1664 103.037 39.7256 103.037C39.1007 103.037 38.4931 102.985 37.9029 102.881C37.33 102.777 36.8006 102.629 36.3145 102.438C35.8285 102.23 35.4032 101.987 35.0386 101.709ZM56.2489 88.924C56.2489 88.5421 56.2229 88.0821 56.1708 87.5439C56.1187 87.0058 56.058 86.4677 55.9885 85.9295C55.9191 85.3914 55.8497 84.9314 55.7802 84.5495L58.0196 84.2891C58.0717 84.6363 58.1237 85.0963 58.1758 85.6691C58.2452 86.2246 58.2973 86.7801 58.332 87.3356C58.3668 87.8911 58.3841 88.3511 58.3841 88.7157C58.3841 89.5489 58.3234 90.3648 58.2019 91.1633C58.0977 91.9445 57.9241 92.717 57.6811 93.4808C57.438 94.2273 57.1169 94.9564 56.7176 95.6681L56.4052 96.2409C55.9191 97.0568 55.3202 97.8467 54.6085 98.6105C53.8968 99.3569 53.0635 100.069 52.1087 100.746H55.3896C55.9799 100.746 56.4312 100.676 56.7437 100.537C57.0561 100.381 57.2645 100.181 57.3686 99.9385C57.4901 99.6954 57.5509 99.435 57.5509 99.1573C57.5509 98.6886 57.2645 98.1071 56.6916 97.4127C56.1361 96.701 55.3636 95.9198 54.3741 95.0692C53.3847 94.2012 52.265 93.2899 51.0151 92.3351C49.7652 91.3803 48.4459 90.4082 47.0572 89.4187L48.281 87.7002C49.8781 88.8806 51.2842 89.9482 52.4993 90.903C53.7318 91.8577 54.7821 92.7344 55.65 93.5329C56.5354 94.3141 57.2558 95.0431 57.8113 95.7202C58.3841 96.3798 58.8007 97.0134 59.0611 97.621C59.3389 98.2112 59.4778 98.7927 59.4778 99.3656C59.4778 99.7475 59.4083 100.147 59.2694 100.563C59.1479 100.963 58.9223 101.345 58.5924 101.709C58.28 102.056 57.8286 102.343 57.2384 102.568C56.6656 102.777 55.9191 102.881 54.9991 102.881H49.0101V100.772C50.7981 99.4871 52.2129 98.2373 53.2545 97.0221C54.3134 95.807 55.0772 94.5397 55.5459 93.2204C56.0146 91.9011 56.2489 90.469 56.2489 88.924ZM48.5414 110.771L48.2289 109.365C48.6803 109.26 49.0448 109.174 49.3226 109.104C49.6003 109.035 49.9128 108.957 50.26 108.87L50.1298 109.417C49.6784 109.278 49.2445 108.983 48.8278 108.531C48.4286 108.08 48.2289 107.568 48.2289 106.995C48.2289 106.474 48.3505 106.032 48.5935 105.667C48.8539 105.32 49.1837 105.059 49.583 104.886C49.9996 104.712 50.4423 104.625 50.911 104.625C51.1019 104.625 51.3015 104.643 51.5099 104.678C51.7355 104.712 51.9438 104.764 52.1348 104.834L51.9265 106.136C51.7529 106.101 51.588 106.066 51.4317 106.032C51.2755 105.997 51.1019 105.979 50.911 105.979C50.5117 105.979 50.1992 106.058 49.9736 106.214C49.7479 106.387 49.635 106.622 49.635 106.917C49.635 107.281 49.7479 107.594 49.9736 107.854C50.2166 108.115 50.4857 108.314 50.7808 108.453C51.0932 108.609 51.3449 108.688 51.5359 108.688L50.4683 108.792C50.937 108.67 51.371 108.54 51.7702 108.401C52.1869 108.28 52.5601 108.158 52.8899 108.037L53.3065 109.365C52.8899 109.521 52.3952 109.686 51.8223 109.859C51.2668 110.033 50.7026 110.198 50.1298 110.354C49.5569 110.51 49.0275 110.649 48.5414 110.771ZM63.0459 102.881L62.5251 84.2891H64.6343L65.1551 102.881H63.0459ZM81.8934 103.428L82.5704 101.292C84.6014 101.292 86.3461 101.24 87.8042 101.136C89.2798 101.032 90.4862 100.867 91.4236 100.642C92.3784 100.398 93.0814 100.077 93.5328 99.6781C94.0015 99.2615 94.2358 98.758 94.2358 98.1678C94.2358 97.5082 94.1143 96.7444 93.8713 95.8764C93.6283 95.0084 93.3158 94.0797 92.9339 93.0902L94.9389 92.3872C95.1646 92.9427 95.3729 93.5416 95.5638 94.1839C95.7721 94.8088 95.9457 95.4337 96.0846 96.0587C96.2235 96.6662 96.2929 97.2304 96.2929 97.7512C96.2929 98.7754 96.0586 99.652 95.5899 100.381C95.1212 101.093 94.34 101.674 93.2464 102.126C92.1527 102.577 90.6772 102.907 88.8197 103.115C86.9797 103.324 84.6709 103.428 81.8934 103.428ZM81.8934 103.428C80.3484 103.428 78.9857 103.324 77.8053 103.115C76.6422 102.924 75.6701 102.62 74.8889 102.204C74.1078 101.787 73.5175 101.249 73.1183 100.589C72.719 99.9124 72.5194 99.0965 72.5194 98.1418C72.5194 97.7078 72.5541 97.2651 72.6235 96.8138C72.693 96.3451 72.7798 95.8764 72.8839 95.4077C73.0054 94.939 73.127 94.4876 73.2485 94.0537L75.2014 94.5484C75.132 94.8088 75.0538 95.1213 74.967 95.4858C74.8802 95.833 74.8021 96.1889 74.7327 96.5534C74.6806 96.9179 74.6546 97.2478 74.6546 97.5429C74.6546 98.4456 74.8802 99.1747 75.3316 99.7302C75.8003 100.268 76.6075 100.668 77.7532 100.928C78.8989 101.171 80.5047 101.292 82.5704 101.292L83.0912 102.594L81.8934 103.428ZM86.2419 92.4393C85.8773 92.4393 85.5649 92.3177 85.3045 92.0747C85.0615 91.8143 84.9399 91.5105 84.9399 91.1633C84.9399 90.8162 85.0615 90.5124 85.3045 90.252C85.5649 89.9916 85.8773 89.8614 86.2419 89.8614C86.5891 89.8614 86.8842 89.9916 87.1272 90.252C87.3876 90.5124 87.5178 90.8162 87.5178 91.1633C87.5178 91.5105 87.3876 91.8143 87.1272 92.0747C86.8842 92.3177 86.5891 92.4393 86.2419 92.4393ZM82.6746 92.4393C82.31 92.4393 81.9976 92.3177 81.7372 92.0747C81.4941 91.8143 81.3726 91.5105 81.3726 91.1633C81.3726 90.8162 81.4941 90.5124 81.7372 90.252C81.9976 89.9916 82.31 89.8614 82.6746 89.8614C83.0217 89.8614 83.3169 89.9916 83.5599 90.252C83.8203 90.5124 83.9505 90.8162 83.9505 91.1633C83.9505 91.5105 83.8203 91.8143 83.5599 92.0747C83.3169 92.3177 83.0217 92.4393 82.6746 92.4393ZM99.4739 102.881L98.9532 84.2891H101.062L101.583 102.881H99.4739ZM102.205 108.87L101.45 106.891C103.203 106.335 104.549 105.667 105.486 104.886C106.441 104.122 107.092 103.324 107.439 102.49C107.804 101.657 107.986 100.859 107.986 100.095C107.986 99.6086 107.934 99.1399 107.83 98.6886C107.725 98.2373 107.543 97.7252 107.283 97.1523C107.022 96.5794 106.658 95.8677 106.189 95.0171L108.09 94.0537C108.75 95.182 109.218 96.2496 109.496 97.2565C109.791 98.2633 109.939 99.1486 109.939 99.9124C109.939 101.006 109.756 101.996 109.392 102.881C109.045 103.766 108.576 104.547 107.986 105.224C107.413 105.919 106.779 106.509 106.085 106.995C105.408 107.481 104.722 107.88 104.028 108.193C103.351 108.505 102.743 108.731 102.205 108.87ZM118.719 103.011C117.33 103.011 116.262 102.855 115.516 102.542C114.787 102.23 114.283 101.744 114.006 101.084C113.728 100.425 113.572 99.5739 113.537 98.5324L113.016 84.2891H115.151L115.672 97.6991C115.707 98.5497 115.785 99.2094 115.907 99.6781C116.045 100.129 116.341 100.442 116.792 100.615C117.261 100.789 117.99 100.876 118.979 100.876C119.344 100.876 119.604 100.98 119.76 101.188C119.934 101.379 120.021 101.614 120.021 101.891C120.021 102.169 119.899 102.43 119.656 102.673C119.413 102.898 119.101 103.011 118.719 103.011ZM118.198 103.011L118.459 100.876C119.014 100.876 119.466 100.841 119.813 100.772C120.16 100.685 120.446 100.485 120.672 100.173C120.915 99.843 121.141 99.3309 121.349 98.6365C121.557 97.9421 121.8 96.97 122.078 95.7202L124.031 96.267C123.927 96.701 123.805 97.2217 123.667 97.8293C123.528 98.4369 123.458 98.9924 123.458 99.4958C123.458 99.7735 123.528 100.017 123.667 100.225C123.805 100.433 124.04 100.598 124.37 100.72C124.717 100.824 125.177 100.876 125.75 100.876C126.27 100.876 126.696 100.832 127.026 100.746C127.355 100.659 127.624 100.451 127.833 100.121C128.058 99.7909 128.258 99.2615 128.432 98.5324C128.605 97.8033 128.788 96.8051 128.978 95.5379L130.957 95.9024C130.905 96.2149 130.845 96.5968 130.775 97.0481C130.706 97.4995 130.636 97.9508 130.567 98.4022C130.515 98.8361 130.489 99.2007 130.489 99.4958C130.489 99.7388 130.541 99.9732 130.645 100.199C130.766 100.407 130.992 100.572 131.322 100.694C131.669 100.815 132.181 100.876 132.858 100.876C133.726 100.876 134.351 100.694 134.733 100.329C135.132 99.9645 135.332 99.409 135.332 98.6626C135.332 98.2633 135.323 97.8467 135.306 97.4127C135.289 96.9613 135.254 96.4666 135.202 95.9285C135.167 95.373 135.106 94.7394 135.019 94.0276L136.92 93.8974C137.024 95.3035 137.137 96.4579 137.259 97.3606C137.398 98.2633 137.589 98.975 137.832 99.4958C138.092 99.9992 138.439 100.355 138.873 100.563C139.307 100.772 139.88 100.876 140.592 100.876C140.956 100.876 141.217 100.98 141.373 101.188C141.547 101.379 141.633 101.614 141.633 101.891C141.633 102.169 141.512 102.43 141.269 102.673C141.026 102.898 140.713 103.011 140.331 103.011C139.741 103.011 139.212 102.933 138.743 102.777C138.292 102.603 137.892 102.377 137.545 102.1C137.215 101.805 136.938 101.475 136.712 101.11C136.504 100.728 136.356 100.329 136.269 99.9124L136.738 100.069C136.547 100.85 136.243 101.457 135.827 101.891C135.427 102.308 134.95 102.603 134.395 102.777C133.839 102.933 133.249 103.011 132.624 103.011C131.86 103.011 131.235 102.916 130.749 102.725C130.263 102.534 129.881 102.247 129.603 101.865C129.343 101.466 129.169 100.963 129.083 100.355H129.968C129.638 101.102 129.291 101.666 128.926 102.048C128.562 102.43 128.11 102.69 127.572 102.829C127.034 102.95 126.322 103.011 125.437 103.011C125.003 103.011 124.534 102.942 124.031 102.803C123.545 102.664 123.12 102.395 122.755 101.996C122.391 101.579 122.174 100.963 122.104 100.147L122.885 99.9905C122.59 100.876 122.226 101.536 121.792 101.969C121.375 102.386 120.872 102.664 120.281 102.803C119.691 102.942 118.997 103.011 118.198 103.011ZM129.421 88.6897C129.057 88.6897 128.744 88.5681 128.484 88.3251C128.241 88.0647 128.119 87.7609 128.119 87.4137C128.119 87.0666 128.241 86.7628 128.484 86.5024C128.744 86.242 129.057 86.1118 129.421 86.1118C129.768 86.1118 130.063 86.242 130.306 86.5024C130.567 86.7628 130.697 87.0666 130.697 87.4137C130.697 87.7609 130.567 88.0647 130.306 88.3251C130.063 88.5681 129.768 88.6897 129.421 88.6897ZM127.65 91.5539C127.286 91.5539 126.973 91.4324 126.713 91.1894C126.47 90.929 126.349 90.6252 126.349 90.278C126.349 89.9308 126.47 89.6271 126.713 89.3667C126.973 89.1063 127.286 88.9761 127.65 88.9761C127.998 88.9761 128.293 89.1063 128.536 89.3667C128.796 89.6271 128.926 89.9308 128.926 90.278C128.926 90.6252 128.796 90.929 128.536 91.1894C128.293 91.4324 127.998 91.5539 127.65 91.5539ZM131.192 91.5539C130.827 91.5539 130.515 91.4324 130.254 91.1894C130.011 90.929 129.89 90.6252 129.89 90.278C129.89 89.9308 130.011 89.6271 130.254 89.3667C130.515 89.1063 130.827 88.9761 131.192 88.9761C131.539 88.9761 131.834 89.1063 132.077 89.3667C132.337 89.6271 132.468 89.9308 132.468 90.278C132.468 90.6252 132.337 90.929 132.077 91.1894C131.834 91.4324 131.539 91.5539 131.192 91.5539ZM139.8 103.011L140.061 100.876C140.929 100.876 141.606 100.815 142.092 100.694C142.578 100.555 142.943 100.303 143.186 99.9385C143.446 99.5566 143.654 99.0097 143.81 98.298C143.967 97.5863 144.158 96.6576 144.383 95.5118L146.414 95.9024C146.345 96.2149 146.267 96.5621 146.18 96.944C146.093 97.3259 146.015 97.7078 145.946 98.0897C145.894 98.4542 145.868 98.7754 145.868 99.0531C145.868 99.3135 145.885 99.5566 145.92 99.7822C145.954 100.008 146.085 100.199 146.31 100.355C146.536 100.511 146.918 100.642 147.456 100.746C147.994 100.832 148.767 100.876 149.773 100.876C150.138 100.876 150.398 100.98 150.555 101.188C150.728 101.379 150.815 101.614 150.815 101.891C150.815 102.169 150.693 102.43 150.45 102.673C150.207 102.898 149.895 103.011 149.513 103.011C148.454 103.011 147.612 102.959 146.987 102.855C146.362 102.733 145.885 102.56 145.555 102.334C145.243 102.108 145.017 101.831 144.878 101.501C144.757 101.154 144.661 100.754 144.592 100.303L145.373 100.355C145.095 100.911 144.791 101.362 144.461 101.709C144.149 102.056 143.784 102.325 143.368 102.516C142.951 102.707 142.448 102.837 141.858 102.907C141.285 102.976 140.599 103.011 139.8 103.011ZM146.753 92.8298C146.388 92.8298 146.076 92.7083 145.815 92.4653C145.572 92.2049 145.451 91.9011 145.451 91.5539C145.451 91.2067 145.572 90.903 145.815 90.6426C146.076 90.3822 146.388 90.252 146.753 90.252C147.1 90.252 147.395 90.3822 147.638 90.6426C147.899 90.903 148.029 91.2067 148.029 91.5539C148.029 91.9011 147.899 92.2049 147.638 92.4653C147.395 92.7083 147.1 92.8298 146.753 92.8298ZM143.186 92.8298C142.821 92.8298 142.509 92.7083 142.248 92.4653C142.005 92.2049 141.884 91.9011 141.884 91.5539C141.884 91.2067 142.005 90.903 142.248 90.6426C142.509 90.3822 142.821 90.252 143.186 90.252C143.533 90.252 143.828 90.3822 144.071 90.6426C144.331 90.903 144.461 91.2067 144.461 91.5539C144.461 91.9011 144.331 92.2049 144.071 92.4653C143.828 92.7083 143.533 92.8298 143.186 92.8298ZM148.993 103.011L149.254 100.876C149.809 100.876 150.261 100.841 150.608 100.772C150.955 100.685 151.241 100.485 151.467 100.173C151.71 99.843 151.936 99.3309 152.144 98.6365C152.352 97.9421 152.595 96.97 152.873 95.7202L154.826 96.267C154.757 96.5621 154.679 96.9006 154.592 97.2825C154.505 97.647 154.427 98.0289 154.357 98.4282C154.288 98.8101 154.253 99.166 154.253 99.4958C154.253 99.9298 154.418 100.268 154.748 100.511C155.078 100.754 155.677 100.876 156.545 100.876C157.066 100.876 157.491 100.832 157.821 100.746C158.15 100.659 158.42 100.451 158.628 100.121C158.854 99.7909 159.053 99.2615 159.227 98.5324C159.4 97.8033 159.583 96.8051 159.774 95.5379L161.753 95.9024C161.7 96.2149 161.64 96.5968 161.57 97.0481C161.501 97.4995 161.431 97.9508 161.362 98.4022C161.31 98.8361 161.284 99.2007 161.284 99.4958C161.284 99.7388 161.336 99.9732 161.44 100.199C161.562 100.407 161.787 100.572 162.117 100.694C162.464 100.815 162.976 100.876 163.653 100.876C164.157 100.876 164.591 100.815 164.955 100.694C165.337 100.572 165.624 100.346 165.815 100.017C166.023 99.6868 166.127 99.2267 166.127 98.6365C166.127 97.9769 165.971 97.1523 165.658 96.1628C165.363 95.156 165.025 94.1578 164.643 93.1683L166.752 92.3872C166.978 92.9427 167.186 93.5763 167.377 94.288C167.585 94.9997 167.759 95.7028 167.898 96.3972C168.037 97.0915 168.106 97.6991 168.106 98.2199C168.106 99.0184 168.002 99.7215 167.794 100.329C167.585 100.937 167.29 101.44 166.908 101.839C166.526 102.221 166.058 102.516 165.502 102.725C164.947 102.916 164.322 103.011 163.627 103.011C162.811 103.011 162.143 102.916 161.622 102.725C161.102 102.534 160.702 102.247 160.425 101.865C160.147 101.466 159.965 100.963 159.878 100.355H160.763C160.433 101.102 160.086 101.666 159.721 102.048C159.357 102.43 158.906 102.69 158.367 102.829C157.829 102.95 157.118 103.011 156.232 103.011C155.798 103.011 155.33 102.942 154.826 102.803C154.34 102.664 153.915 102.395 153.55 101.996C153.186 101.579 152.969 100.963 152.899 100.147L153.68 99.9905C153.385 100.876 153.021 101.536 152.587 101.969C152.17 102.386 151.667 102.664 151.077 102.803C150.486 102.942 149.792 103.011 148.993 103.011ZM184.489 103.011C183.448 103.011 182.588 102.924 181.911 102.751C181.252 102.577 180.731 102.308 180.349 101.943C179.984 101.579 179.724 101.119 179.568 100.563C179.429 99.9905 179.342 99.3135 179.307 98.5324L178.787 84.2891H180.922L181.443 97.6991C181.477 98.5497 181.555 99.2094 181.677 99.6781C181.816 100.129 182.111 100.442 182.562 100.615C183.031 100.789 183.76 100.876 184.75 100.876C185.114 100.876 185.374 100.98 185.531 101.188C185.704 101.379 185.791 101.614 185.791 101.891C185.791 102.169 185.67 102.43 185.427 102.673C185.184 102.898 184.871 103.011 184.489 103.011ZM172.589 103.011C172.121 103.011 171.643 102.968 171.157 102.881C170.689 102.811 170.359 102.759 170.168 102.725L170.454 100.668C171.652 100.824 172.78 100.85 173.839 100.746C174.898 100.642 175.818 100.346 176.599 99.8603C177.398 99.3569 178.023 98.6018 178.474 97.595C178.926 96.5881 179.151 95.2775 179.151 93.6631L180.401 96.7878C180.193 97.8814 179.88 98.8014 179.464 99.5479C179.047 100.277 178.561 100.876 178.005 101.345C177.467 101.796 176.886 102.143 176.261 102.386C175.636 102.629 175.011 102.794 174.386 102.881C173.761 102.968 173.162 103.011 172.589 103.011ZM178.24 99.4437C177.962 98.9056 177.571 98.2807 177.068 97.5689C176.565 96.8398 175.957 96.05 175.245 95.1994C174.534 94.3488 173.726 93.4635 172.824 92.5434C171.938 91.6234 170.975 90.6946 169.933 89.7572L171.34 88.273C172.485 89.3667 173.501 90.3909 174.386 91.3456C175.289 92.283 176.079 93.1683 176.756 94.0016C177.433 94.8175 178.014 95.5639 178.5 96.2409C178.986 96.9179 179.394 97.5342 179.724 98.0897L178.24 99.4437ZM183.959 103.011L184.193 100.876C185.183 100.876 185.877 100.78 186.276 100.589C186.676 100.398 186.901 100.06 186.953 99.5739C187.023 99.0879 187.04 98.4108 187.005 97.5429L186.511 84.2891H188.62L189.141 97.3085C189.175 98.2286 189.141 99.0445 189.036 99.7562C188.95 100.468 188.724 101.067 188.359 101.553C188.012 102.039 187.483 102.403 186.771 102.647C186.077 102.89 185.139 103.011 183.959 103.011ZM196.387 102.907C196.387 102.49 196.422 102.048 196.491 101.579C196.578 101.093 196.7 100.581 196.856 100.043C197.03 99.4871 197.238 98.9056 197.481 98.298L199.356 99.0271C199.182 99.5132 199.026 99.9732 198.887 100.407C198.766 100.841 198.67 101.249 198.601 101.631C198.549 102.013 198.522 102.377 198.522 102.725C198.522 103.627 198.757 104.374 199.226 104.964C199.694 105.554 200.337 105.997 201.152 106.292C201.968 106.587 202.888 106.735 203.913 106.735C205.076 106.735 206.048 106.578 206.829 106.266C207.627 105.953 208.261 105.537 208.73 105.016C209.198 104.513 209.528 103.948 209.719 103.324C209.928 102.699 210.032 102.082 210.032 101.475C210.032 100.815 209.902 100.017 209.641 99.0792C209.398 98.1418 208.938 96.9787 208.261 95.59L210.214 94.6005C210.561 95.2601 210.874 95.9545 211.151 96.6836C211.446 97.3953 211.681 98.1331 211.854 98.8969C212.045 99.6434 212.141 100.407 212.141 101.188C212.141 101.865 212.054 102.56 211.88 103.271C211.724 103.983 211.455 104.669 211.073 105.329C210.691 106.006 210.179 106.604 209.537 107.125C208.912 107.663 208.131 108.089 207.193 108.401C206.273 108.714 205.171 108.87 203.887 108.87C202.88 108.87 201.916 108.748 200.996 108.505C200.094 108.28 199.295 107.924 198.601 107.438C197.924 106.952 197.385 106.335 196.986 105.589C196.587 104.842 196.387 103.948 196.387 102.907ZM204.251 92.5174C203.887 92.5174 203.574 92.3959 203.314 92.1528C203.071 91.8924 202.949 91.5887 202.949 91.2415C202.949 90.8943 203.071 90.5905 203.314 90.3301C203.574 90.0697 203.887 89.9395 204.251 89.9395C204.598 89.9395 204.893 90.0697 205.136 90.3301C205.397 90.5905 205.527 90.8943 205.527 91.2415C205.527 91.5887 205.397 91.8924 205.136 92.1528C204.893 92.3959 204.598 92.5174 204.251 92.5174ZM214.421 108.87L213.952 106.735C214.994 106.596 215.949 106.396 216.817 106.136C217.702 105.893 218.457 105.537 219.082 105.068C219.724 104.599 220.219 103.983 220.566 103.219C220.913 102.456 221.087 101.501 221.087 100.355C221.087 99.1747 220.87 98.1939 220.436 97.4127C220.002 96.6315 219.438 96.2409 218.744 96.2409C218.379 96.2409 218.04 96.3798 217.728 96.6576C217.416 96.9353 217.155 97.3085 216.947 97.7772C216.756 98.2459 216.66 98.758 216.66 99.3135C216.66 99.626 216.73 99.8864 216.869 100.095C217.008 100.286 217.207 100.442 217.468 100.563C217.745 100.668 218.093 100.746 218.509 100.798C218.926 100.85 219.412 100.876 219.967 100.876H225.462C225.826 100.876 226.087 100.98 226.243 101.188C226.416 101.379 226.503 101.614 226.503 101.891C226.503 102.169 226.382 102.43 226.139 102.673C225.896 102.898 225.583 103.011 225.201 103.011H218.978C218.197 103.011 217.468 102.898 216.791 102.673C216.131 102.447 215.593 102.1 215.176 101.631C214.777 101.145 214.577 100.511 214.577 99.7302C214.577 99.0011 214.69 98.3067 214.916 97.647C215.141 96.97 215.445 96.3711 215.827 95.8504C216.226 95.3122 216.686 94.8869 217.207 94.5744C217.745 94.262 218.327 94.1057 218.952 94.1057C219.75 94.1057 220.462 94.3401 221.087 94.8088C221.712 95.2775 222.207 95.9892 222.571 96.944C222.936 97.8814 223.118 99.0705 223.118 100.511C223.118 102.126 222.788 103.514 222.129 104.678C221.486 105.858 220.514 106.795 219.212 107.49C217.928 108.184 216.331 108.644 214.421 108.87ZM224.672 103.011L224.932 100.876H226.937C228.378 100.876 229.446 100.798 230.14 100.642C230.835 100.485 231.286 100.277 231.494 100.017C231.72 99.7562 231.833 99.4871 231.833 99.2094C231.833 98.7928 231.677 98.3327 231.364 97.8293C231.052 97.3259 230.652 96.8138 230.166 96.293C229.68 95.7549 229.159 95.2254 228.604 94.7046C228.066 94.1839 227.554 93.7065 227.068 93.2725C226.582 92.8385 226.182 92.4653 225.87 92.1528C225.557 91.823 225.401 91.5887 225.401 91.4498C225.401 91.1894 225.419 90.9377 225.453 90.6946C225.505 90.4516 225.566 90.2259 225.636 90.0176C225.722 89.8093 225.826 89.6444 225.948 89.5229C226.295 89.1584 226.773 88.7764 227.38 88.3772C227.988 87.9606 228.691 87.5439 229.489 87.1273C230.288 86.6933 231.138 86.2594 232.041 85.8254C232.944 85.374 233.855 84.9227 234.775 84.4713L235.66 86.3982C234.827 86.8149 233.994 87.2315 233.161 87.6481C232.328 88.0474 231.52 88.4466 230.739 88.8459C229.958 89.2451 229.22 89.6531 228.526 90.0697C227.849 90.469 227.233 90.8769 226.677 91.2935L226.833 90.4082C227.614 91.0679 228.352 91.7015 229.047 92.3091C229.741 92.9166 230.401 93.5416 231.026 94.1839C231.651 94.8088 232.232 95.4858 232.77 96.2149C233.308 96.944 233.812 97.7512 234.28 98.6365C234.645 99.3135 235.07 99.8083 235.556 100.121C236.042 100.433 236.52 100.642 236.988 100.746C237.475 100.832 237.865 100.876 238.16 100.876C238.525 100.876 238.785 100.98 238.941 101.188C239.115 101.379 239.202 101.614 239.202 101.891C239.202 102.169 239.08 102.43 238.837 102.673C238.594 102.898 238.282 103.011 237.9 103.011C237.431 103.011 236.876 102.942 236.233 102.803C235.608 102.647 234.992 102.351 234.385 101.917C233.777 101.483 233.274 100.824 232.874 99.9385L233.655 100.251C233.395 100.72 233.091 101.128 232.744 101.475C232.414 101.805 231.989 102.091 231.468 102.334C230.947 102.56 230.314 102.733 229.567 102.855C228.821 102.959 227.91 103.011 226.833 103.011H224.672ZM237.374 103.011L237.635 100.876C238.503 100.876 239.18 100.815 239.666 100.694C240.152 100.555 240.516 100.303 240.759 99.9385C241.02 99.5566 241.228 99.0097 241.384 98.298C241.54 97.5863 241.731 96.6576 241.957 95.5118L243.988 95.9024C243.919 96.2149 243.841 96.5621 243.754 96.944C243.667 97.3259 243.589 97.7078 243.519 98.0897C243.467 98.4542 243.441 98.7754 243.441 99.0531C243.441 99.3135 243.459 99.5566 243.493 99.7822C243.528 100.008 243.658 100.199 243.884 100.355C244.11 100.511 244.491 100.642 245.03 100.746C245.568 100.832 246.34 100.876 247.347 100.876C247.712 100.876 247.972 100.98 248.128 101.188C248.302 101.379 248.389 101.614 248.389 101.891C248.389 102.169 248.267 102.43 248.024 102.673C247.781 102.898 247.469 103.011 247.087 103.011C246.028 103.011 245.186 102.959 244.561 102.855C243.936 102.733 243.459 102.56 243.129 102.334C242.816 102.108 242.591 101.831 242.452 101.501C242.33 101.154 242.235 100.754 242.165 100.303L242.947 100.355C242.669 100.911 242.365 101.362 242.035 101.709C241.723 102.056 241.358 102.325 240.942 102.516C240.525 102.707 240.021 102.837 239.431 102.907C238.858 102.976 238.173 103.011 237.374 103.011ZM243.936 107.932C243.571 107.932 243.259 107.802 242.999 107.542C242.756 107.299 242.634 107.004 242.634 106.657C242.634 106.309 242.756 106.006 242.999 105.745C243.259 105.485 243.571 105.355 243.936 105.355C244.283 105.355 244.578 105.485 244.821 105.745C245.082 106.006 245.212 106.309 245.212 106.657C245.212 107.004 245.082 107.299 244.821 107.542C244.578 107.802 244.283 107.932 243.936 107.932ZM240.369 107.932C240.004 107.932 239.692 107.802 239.431 107.542C239.188 107.299 239.067 107.004 239.067 106.657C239.067 106.309 239.188 106.006 239.431 105.745C239.692 105.485 240.004 105.355 240.369 105.355C240.716 105.355 241.011 105.485 241.254 105.745C241.514 106.006 241.645 106.309 241.645 106.657C241.645 107.004 241.514 107.299 241.254 107.542C241.011 107.802 240.716 107.932 240.369 107.932ZM246.567 103.011L246.828 100.876C247.678 100.876 248.355 100.824 248.859 100.72C249.362 100.615 249.727 100.407 249.952 100.095C250.178 99.7649 250.291 99.2788 250.291 98.6365C250.291 98.2025 250.221 97.6904 250.082 97.1002C249.944 96.4926 249.761 95.8504 249.536 95.1733C249.31 94.4963 249.067 93.828 248.806 93.1683L250.916 92.3872C251.141 92.9427 251.35 93.5763 251.541 94.288C251.749 94.9997 251.922 95.7028 252.061 96.3972C252.2 97.0915 252.27 97.6991 252.27 98.2199C252.27 98.9143 252.192 99.5305 252.035 100.069C251.896 100.589 251.679 101.041 251.384 101.423C251.089 101.787 250.707 102.091 250.239 102.334C249.787 102.56 249.258 102.733 248.65 102.855C248.043 102.959 247.348 103.011 246.567 103.011ZM249.353 107.854C248.989 107.854 248.676 107.724 248.416 107.464C248.173 107.221 248.051 106.926 248.051 106.578C248.051 106.231 248.173 105.927 248.416 105.667C248.676 105.407 248.989 105.276 249.353 105.276C249.7 105.276 249.996 105.407 250.239 105.667C250.499 105.927 250.629 106.231 250.629 106.578C250.629 106.926 250.499 107.221 250.239 107.464C249.996 107.724 249.7 107.854 249.353 107.854Z" fill="#040817"/>
</svg>
