<?xml version="1.0" encoding="UTF-8"?>
<svg id="Layer_1" data-name="Layer 1" xmlns="http://www.w3.org/2000/svg" viewBox="0 0 502 502">
  <defs>
    <style>
      .cls-1 {
        fill: #f2f2f3;
      }

      .cls-1, .cls-2 {
        stroke-width: 0px;
      }

      .cls-2 {
        fill: #212659;
      }
    </style>
  </defs>
  <rect class="cls-1" x="2" y="2" width="500" height="500"/>
  <g>
    <g>
      <path class="cls-2" d="M103.547,274.522c-2.698,0-5.209-.493-7.532-1.478s-4.364-2.346-6.101-4.083v4.74h-8.564v-65.7h9.644v28.345c1.689-1.408,3.59-2.511,5.725-3.308,2.112-.798,4.388-1.197,6.805-1.197,3.778,0,7.227.962,10.324,2.886,3.097,1.924,5.585,4.505,7.415,7.743,1.854,3.238,2.769,6.828,2.769,10.747s-.915,7.509-2.769,10.747-4.317,5.819-7.415,7.743c-3.074,1.854-6.5,2.816-10.301,2.816ZM102.398,265.887c2.276,0,4.364-.563,6.265-1.713,1.901-1.15,3.402-2.675,4.529-4.576,1.126-1.924,1.666-4.059,1.666-6.429,0-2.323-.563-4.458-1.666-6.359-1.126-1.924-2.605-3.449-4.482-4.622s-3.965-1.736-6.288-1.736c-2.276,0-4.364.563-6.265,1.713-1.901,1.15-3.402,2.675-4.505,4.576-1.126,1.924-1.666,4.059-1.666,6.429,0,2.323.563,4.458,1.666,6.359,1.126,1.924,2.605,3.449,4.482,4.622,1.83,1.173,3.942,1.736,6.265,1.736Z"/>
      <path class="cls-2" d="M149.35,274.803c-4.435,0-8.377-.962-11.85-2.886-3.473-1.924-6.171-4.529-8.119-7.861-1.948-3.332-2.91-7.086-2.91-11.286,0-4.012.939-7.626,2.839-10.817,1.901-3.191,4.458-5.725,7.673-7.602,3.215-1.877,6.758-2.816,10.653-2.816,3.919,0,7.462.915,10.653,2.745,3.168,1.83,5.702,4.294,7.556,7.415,1.877,3.121,2.816,6.664,2.816,10.629v3.637h-25.952c-1.15,0-2.276-.047-3.426-.164s-2.276-.258-3.426-.446c.54,3.144,2.065,5.772,4.552,7.861,2.487,2.088,5.538,3.144,9.128,3.144,2.605,0,4.974-.563,7.11-1.666,2.135-1.126,3.895-2.558,5.279-4.341l2.323,9.573c-2.018,1.596-4.294,2.816-6.852,3.637s-5.209,1.244-8.048,1.244ZM135.67,249.203c2.37-.446,4.716-.68,7.039-.68h10.395c1.15,0,2.253.047,3.308.141s2.112.211,3.121.352c-.68-2.792-2.112-5.045-4.271-6.805-2.159-1.76-4.74-2.628-7.696-2.628-2.886,0-5.397.915-7.602,2.745-2.182,1.783-3.614,4.083-4.294,6.875Z"/>
      <path class="cls-2" d="M191.116,274.522c-3.731,0-7.157-.962-10.254-2.863-3.097-1.924-5.585-4.505-7.415-7.743-1.83-3.238-2.769-6.828-2.769-10.747s.915-7.509,2.769-10.747,4.317-5.819,7.415-7.743,6.523-2.886,10.254-2.886c2.745,0,5.279.493,7.626,1.478s4.364,2.37,6.054,4.13v-4.787h8.564v41.086h-8.564v-4.787c-1.689,1.736-3.707,3.097-6.054,4.106-2.346,1.009-4.881,1.502-7.626,1.502ZM192.36,265.887c2.276,0,4.364-.563,6.265-1.713,1.901-1.15,3.402-2.675,4.505-4.576s1.666-4.059,1.666-6.429c0-2.323-.563-4.458-1.666-6.359-1.126-1.924-2.605-3.449-4.482-4.622s-3.965-1.736-6.288-1.736c-2.276,0-4.364.563-6.265,1.713-1.901,1.15-3.402,2.675-4.529,4.576-1.126,1.924-1.666,4.059-1.666,6.429,0,2.323.563,4.458,1.666,6.359,1.126,1.924,2.605,3.449,4.482,4.622,1.877,1.173,3.989,1.736,6.312,1.736Z"/>
      <path class="cls-2" d="M240.204,274.803c-4.059,0-7.767-.962-11.075-2.91-3.332-1.948-5.983-4.552-7.931-7.837-1.971-3.285-2.933-6.922-2.933-10.887,0-4.012.986-7.649,2.933-10.911s4.599-5.866,7.931-7.814,7.016-2.91,11.075-2.91c2.886,0,5.608.493,8.189,1.478s4.857,2.37,6.805,4.13l-2.675,10.747c-1.15-2.065-2.769-3.825-4.857-5.303-2.088-1.478-4.529-2.229-7.25-2.229-2.37,0-4.529.587-6.476,1.736-1.948,1.173-3.473,2.698-4.576,4.622-1.126,1.924-1.666,4.059-1.666,6.429,0,2.323.563,4.458,1.666,6.406,1.126,1.948,2.651,3.496,4.576,4.646s4.106,1.736,6.476,1.736c2.745,0,5.162-.727,7.25-2.182s3.707-3.238,4.857-5.35l2.675,10.747c-1.971,1.783-4.224,3.168-6.805,4.13-2.581,1.032-5.303,1.525-8.189,1.525Z"/>
      <path class="cls-2" d="M274.791,274.803c-2.886,0-5.585-.704-8.119-2.112s-4.576-3.473-6.124-6.148-2.323-5.96-2.323-9.785v-24.121h9.644v22.784c0,2.792.821,5.233,2.487,7.368s4.012,3.191,7.016,3.191c2.464,0,4.669-.892,6.617-2.675,1.948-1.783,2.91-4.341,2.91-7.673v-22.995h9.644v41.063h-8.823v-5.467c-1.502,2.159-3.379,3.778-5.655,4.904-2.253,1.103-4.669,1.666-7.274,1.666Z"/>
      <path class="cls-2" d="M326.06,274.522c-2.698,0-5.209-.493-7.532-1.478s-4.364-2.346-6.101-4.083v4.74h-8.564v-65.7h9.644v28.345c1.689-1.408,3.59-2.511,5.725-3.308s4.388-1.197,6.805-1.197c3.778,0,7.227.962,10.324,2.886s5.585,4.505,7.415,7.743c1.854,3.238,2.769,6.828,2.769,10.747s-.915,7.509-2.769,10.747c-1.854,3.238-4.317,5.819-7.415,7.743-3.05,1.854-6.5,2.816-10.301,2.816ZM324.91,265.887c2.276,0,4.364-.563,6.265-1.713,1.901-1.15,3.402-2.675,4.505-4.576s1.666-4.059,1.666-6.429c0-2.323-.563-4.458-1.666-6.359-1.126-1.924-2.605-3.449-4.482-4.622-1.877-1.173-3.965-1.736-6.288-1.736-2.276,0-4.364.563-6.265,1.713-1.901,1.15-3.402,2.675-4.505,4.576-1.126,1.924-1.666,4.059-1.666,6.429,0,2.323.563,4.458,1.666,6.359,1.126,1.924,2.605,3.449,4.482,4.622,1.854,1.173,3.965,1.736,6.288,1.736Z"/>
      <path class="cls-2" d="M371.863,274.803c-4.435,0-8.377-.962-11.826-2.886-3.473-1.924-6.171-4.529-8.119-7.861-1.948-3.332-2.91-7.086-2.91-11.286,0-4.012.939-7.626,2.839-10.817,1.901-3.191,4.458-5.725,7.673-7.602s6.758-2.816,10.653-2.816c3.919,0,7.462.915,10.653,2.745s5.702,4.294,7.556,7.415c1.877,3.121,2.816,6.664,2.816,10.629v3.637h-25.928c-1.15,0-2.276-.047-3.426-.164s-2.276-.258-3.426-.446c.54,3.144,2.065,5.772,4.552,7.861,2.487,2.088,5.538,3.144,9.128,3.144,2.605,0,4.974-.563,7.11-1.666,2.135-1.126,3.895-2.558,5.279-4.341l2.323,9.573c-2.018,1.596-4.294,2.816-6.852,3.637-2.558.821-5.256,1.244-8.095,1.244ZM358.183,249.203c2.37-.446,4.716-.68,7.039-.68h10.395c1.15,0,2.253.047,3.332.141,1.079.094,2.112.211,3.121.352-.68-2.792-2.112-5.045-4.271-6.805s-4.74-2.628-7.696-2.628c-2.863,0-5.397.915-7.602,2.745-2.206,1.783-3.637,4.083-4.317,6.875Z"/>
    </g>
    <path class="cls-2" d="M382.447,222.785h17.5v17.5h-4.375v-13.125h-13.125"/>
  </g>
</svg>