<?xml version="1.0" encoding="UTF-8"?>
<svg id="Layer_1" data-name="Layer 1" xmlns="http://www.w3.org/2000/svg" viewBox="0 0 1771.883 371.156">
  <defs>
    <style>
      .cls-1 {
        fill: #fff;
        stroke-width: 0px;
      }
    </style>
  </defs>
  <g>
    <path class="cls-1" d="M123.348,369.49c-15.002,0-28.892-2.778-41.672-8.334-12.779-5.556-24.447-12.779-33.893-22.781v26.114H0V0h53.895v157.241c9.446-7.779,20.002-13.891,31.671-18.336,11.668-4.445,24.447-6.667,37.782-6.667,21.114,0,40.005,5.556,57.229,16.113,17.224,10.557,31.115,25.003,41.116,42.783,10.557,17.78,15.557,37.782,15.557,59.452s-5.001,41.672-15.557,59.452c-10.557,17.78-23.892,32.226-41.116,42.783-16.669,11.668-36.116,16.669-57.229,16.669ZM117.237,321.706c12.779,0,24.447-3.334,35.004-9.446,10.557-6.112,18.891-15.002,25.003-25.559,6.112-10.557,9.446-22.781,9.446-35.56s-3.334-25.003-9.446-35.56c-6.112-10.557-14.446-18.891-25.003-25.559-10.557-6.668-22.225-9.446-35.004-9.446s-24.447,3.334-35.004,9.446c-10.557,6.112-18.891,15.002-25.003,25.559-6.112,10.557-9.446,22.781-9.446,35.56s3.334,25.003,9.446,35.56c6.112,10.557,14.446,18.891,25.003,25.559,10.557,6.112,22.225,9.446,35.004,9.446Z"/>
    <path class="cls-1" d="M377.824,371.156c-24.447,0-46.672-5.556-65.564-16.113-18.891-10.557-34.449-25.003-45.005-43.894-10.557-18.336-16.113-39.449-16.113-62.785,0-22.225,5.001-42.227,15.557-60.007,10.557-17.78,25.003-31.671,42.783-42.227,17.78-10.557,37.782-15.557,59.452-15.557s41.672,5.001,59.452,15.002c17.78,10.001,31.671,23.892,42.227,41.116,10.557,17.224,15.557,37.227,15.557,58.896v20.002h-144.462c-6.112,0-12.779,0-18.891-1.111-6.112-1.111-12.779-1.667-18.891-2.222,2.778,17.224,11.668,32.226,25.559,43.894,13.891,11.668,30.559,17.224,50.562,17.224,14.446,0,27.781-3.334,39.449-9.446,11.668-6.112,21.669-14.446,29.448-23.892l12.779,53.34c-11.112,8.89-23.892,15.557-38.338,20.002-15.002,5.556-29.448,7.779-45.561,7.779ZM302.259,228.917c13.335-2.222,26.114-3.889,38.894-3.889h57.785c6.112,0,12.779,0,18.336.556,6.112.556,11.668,1.111,17.224,2.222-3.889-15.557-11.668-27.781-23.892-37.782-12.224-10.001-26.114-14.446-42.783-14.446-16.113,0-30.004,5.001-42.227,15.002-11.668,10.001-19.447,22.781-23.336,38.338Z"/>
    <path class="cls-1" d="M610.074,369.49c-20.558,0-40.005-5.556-57.229-16.113-17.224-10.557-31.115-25.003-41.116-42.783-10.001-17.78-15.557-37.782-15.557-59.452s5.001-41.672,15.557-59.452c10.557-17.78,23.892-32.226,41.116-42.783,17.224-10.557,36.116-16.113,57.229-16.113,15.002,0,29.448,2.778,42.227,8.334,12.779,5.556,24.447,13.335,33.893,22.781v-26.67h47.784v228.361h-47.784v-26.67c-9.446,9.446-20.558,17.224-33.893,22.781-12.779,5-26.67,7.779-42.227,7.779ZM617.297,321.706c12.779,0,24.447-3.334,35.004-9.446,10.557-6.112,18.891-15.002,25.003-25.559,6.112-10.557,9.446-22.781,9.446-35.56s-3.334-25.003-9.446-35.56c-6.112-10.557-14.446-18.891-25.003-25.559-10.557-6.667-22.225-9.446-35.004-9.446s-24.447,3.334-35.004,9.446c-10.557,6.112-18.891,15.002-25.003,25.559-6.112,10.557-9.446,22.781-9.446,35.56s3.334,25.003,9.446,35.56c6.112,10.557,14.446,18.891,25.003,25.559,10.001,6.112,21.669,9.446,35.004,9.446Z"/>
    <path class="cls-1" d="M882.885,371.156c-22.781,0-43.339-5.556-61.674-16.113-18.336-10.557-33.337-25.559-43.894-43.339-11.112-18.336-16.113-38.338-16.113-60.563s5.556-42.227,16.113-60.563c10.557-18.336,25.559-32.782,43.894-43.339,18.336-10.557,38.894-16.113,61.674-16.113,16.113,0,31.115,2.778,45.561,8.334s27.226,13.335,37.782,22.781l-15.002,59.452c-6.112-11.668-15.557-21.114-27.226-29.448-11.668-8.334-25.003-12.224-40.561-12.224-13.335,0-25.003,3.334-36.116,9.446-10.557,6.667-19.447,15.002-25.559,25.559-6.112,10.557-9.446,22.781-9.446,35.56s3.334,25.003,9.446,35.56c6.112,10.557,15.002,19.447,25.559,25.559,10.557,6.112,22.781,9.446,36.116,9.446,15.002,0,28.892-3.889,40.561-12.224,11.668-8.334,20.558-17.78,27.226-29.448l15.002,59.452c-11.112,10.001-23.336,17.78-37.782,22.781-14.446,6.667-29.448,9.445-45.561,9.445Z"/>
    <path class="cls-1" d="M1075.131,371.156c-16.113,0-31.115-3.889-45.006-11.668-13.891-7.779-25.559-19.447-33.893-33.893-8.334-14.446-12.779-33.337-12.779-54.451v-133.905h53.34v126.682c0,15.557,4.445,28.892,13.891,41.116,9.446,11.668,22.225,17.78,38.894,17.78,13.891,0,26.114-5.001,36.671-15.002,10.557-10.001,16.113-23.892,16.113-42.783v-127.793h53.34v228.361h-48.895v-30.559c-8.334,12.224-18.891,21.114-31.671,27.226-12.224,5.557-25.559,8.89-40.005,8.89Z"/>
    <path class="cls-1" d="M1360.166,369.49c-15.002,0-28.892-2.778-41.672-8.334s-24.447-12.779-33.893-22.781v26.114h-47.784V0h53.34v157.241c9.446-7.779,20.002-13.891,31.671-18.336,11.668-4.445,24.447-6.667,37.782-6.667,21.114,0,40.005,5.556,57.229,16.113,17.224,10.557,31.115,25.003,41.116,42.783,10.557,17.78,15.557,37.782,15.557,59.452s-5.001,41.672-15.557,59.452c-10.557,17.78-23.892,32.226-41.116,42.783-16.669,11.668-35.56,16.669-56.673,16.669ZM1353.498,321.706c12.779,0,24.447-3.334,35.004-9.446,10.557-6.112,18.891-15.002,25.003-25.559,6.112-10.557,9.446-22.781,9.446-35.56s-3.334-25.003-9.446-35.56c-6.112-10.557-14.446-18.891-25.003-25.559-10.557-6.667-22.225-9.446-35.004-9.446s-24.447,3.334-35.004,9.446c-10.557,6.112-18.891,15.002-25.003,25.559-6.112,10.557-9.446,22.781-9.446,35.56s3.334,25.003,9.446,35.56c6.112,10.557,14.446,18.891,25.003,25.559,10.557,6.112,22.225,9.446,35.004,9.446Z"/>
    <path class="cls-1" d="M1614.641,371.156c-24.447,0-46.672-5.556-65.563-16.113-19.447-10.557-34.449-25.003-45.006-43.894-10.557-18.336-16.113-39.449-16.113-62.785,0-22.225,5.001-42.227,15.557-60.007,10.557-17.78,25.003-31.671,42.783-42.227,17.78-10.557,37.782-15.557,59.452-15.557s41.672,5.001,59.452,15.002c17.78,10.001,31.671,23.892,42.227,41.116,10.557,17.224,15.557,37.227,15.557,58.896v20.002h-143.906c-6.112,0-12.779,0-18.891-1.111-6.112-.556-12.779-1.667-18.891-2.222,2.778,17.224,11.668,32.226,25.559,43.894,13.891,11.668,30.559,17.224,50.562,17.224,14.446,0,27.781-3.334,39.449-9.446,11.668-6.112,21.669-14.446,29.448-23.892l12.779,53.34c-11.112,8.89-23.892,15.557-38.338,20.002-15.558,5.556-30.559,7.779-46.117,7.779ZM1538.521,228.917c13.335-2.222,26.114-3.889,38.894-3.889h57.785c6.112,0,12.779,0,18.336.556,6.112.556,11.668,1.111,17.224,2.222-3.889-15.557-11.668-27.781-23.892-37.782-12.224-10.001-26.114-14.446-42.783-14.446-16.113,0-30.004,5.001-42.227,15.002-11.668,10.001-19.447,22.781-23.336,38.338Z"/>
  </g>
  <path class="cls-1" d="M1675.82,69.478h96.062v96.062h-24.153v-71.91h-71.91"/>
</svg>